<?xml version="1.0" standalone="no"?>
<!DOCTYPE svg PUBLIC "-//W3C//DTD SVG 20010904//EN"
 "http://www.w3.org/TR/2001/REC-SVG-20010904/DTD/svg10.dtd">
<svg version="1.0" xmlns="http://www.w3.org/2000/svg"
 width="1314.000000pt" height="1314.000000pt" viewBox="0 0 1314.000000 1314.000000"
 preserveAspectRatio="xMidYMid meet">
<metadata>
Created by potrace 1.11, written by Peter Selinger 2001-2013
</metadata>
<g transform="translate(0.000000,1314.000000) scale(0.100000,-0.100000)"
fill="#000000" stroke="none">
<path d="M6269 13126 c-2 -2 -56 -7 -119 -10 -114 -7 -145 -10 -250 -21 -30
-3 -73 -8 -95 -11 -22 -2 -56 -6 -75 -9 -52 -7 -115 -15 -150 -20 -17 -2 -43
-6 -58 -9 -15 -3 -43 -8 -62 -11 -19 -3 -71 -13 -115 -21 -44 -8 -91 -17 -105
-20 -14 -2 -36 -7 -50 -10 -14 -3 -34 -8 -45 -10 -30 -6 -320 -80 -400 -102
-412 -115 -926 -327 -1340 -554 -144 -79 -160 -88 -279 -162 -621 -384 -1165
-858 -1626 -1416 -510 -617 -906 -1329 -1159 -2085 -67 -200 -146 -480 -176
-625 -2 -8 -11 -49 -20 -90 -16 -75 -31 -151 -39 -202 -3 -15 -10 -53 -15 -85
-25 -138 -49 -327 -66 -503 -27 -289 -27 -927 0 -1155 2 -16 7 -63 10 -102 3
-40 8 -81 10 -91 2 -11 6 -43 10 -73 9 -78 15 -121 20 -149 3 -14 8 -45 11
-70 7 -53 11 -76 18 -98 3 -9 7 -35 11 -57 18 -127 103 -471 174 -707 187
-614 477 -1219 850 -1768 130 -193 361 -491 490 -635 136 -150 182 -198 335
-349 352 -347 696 -619 1134 -895 62 -39 115 -71 117 -71 3 0 33 -17 67 -38
368 -224 963 -478 1453 -621 197 -57 533 -135 670 -156 22 -3 47 -7 55 -10 8
-2 33 -6 55 -10 22 -3 67 -10 100 -15 33 -5 85 -11 115 -15 30 -3 66 -8 80
-10 42 -7 170 -19 330 -32 52 -4 239 -7 415 -7 334 0 475 6 695 29 120 14 138
16 210 26 41 6 84 12 95 13 11 2 40 6 65 10 25 4 59 10 75 12 17 3 37 7 45 9
8 2 31 7 50 10 322 52 852 207 1240 363 114 46 158 65 290 124 308 139 715
372 1020 587 114 79 327 240 366 276 7 5 31 26 55 45 227 182 553 500 766 745
724 837 1216 1811 1458 2890 15 66 29 130 31 143 2 12 7 34 10 50 3 15 7 43 9
62 2 19 9 55 14 80 6 25 15 81 21 125 6 44 12 91 14 105 5 31 26 219 31 280
27 341 28 835 1 1130 -18 187 -24 245 -42 365 -9 55 -19 125 -24 155 -15 98
-80 410 -111 529 -95 367 -207 693 -351 1021 -55 125 -240 502 -258 525 -4 6
-25 42 -45 80 -113 208 -354 568 -536 801 -268 342 -630 717 -939 974 -30 25
-61 52 -70 60 -9 8 -35 29 -57 47 -710 559 -1464 947 -2314 1192 -173 50 -517
129 -674 155 -200 33 -425 61 -579 72 -44 3 -94 7 -111 10 -35 6 -730 15 -736
10z m641 -800 c63 -4 131 -9 150 -11 151 -14 187 -18 205 -21 11 -2 44 -6 73
-9 47 -5 295 -46 362 -60 14 -3 34 -7 45 -9 22 -4 19 -4 180 -41 252 -58 681
-198 860 -279 17 -8 59 -26 95 -41 79 -33 377 -179 480 -236 385 -212 824
-528 1124 -808 208 -195 404 -404 557 -591 486 -598 817 -1217 1053 -1970 54
-171 55 -156 -10 -163 -30 -3 -85 -19 -121 -36 -36 -17 -67 -31 -69 -31 -2 0
-21 17 -42 38 -22 20 -113 107 -203 192 -90 85 -210 200 -268 255 -57 55 -119
114 -136 130 -18 17 -109 104 -204 194 -94 90 -190 182 -213 203 l-42 38
-1725 0 c-949 0 -1753 0 -1786 0 l-60 0 1 488 c0 466 -2 516 -29 533 -5 4
-153 7 -329 7 -304 1 -320 0 -338 -18 -19 -19 -20 -37 -20 -515 l0 -495 -27
-1 c-16 0 -139 -1 -276 -2 l-247 -2 0 498 c0 478 -1 498 -19 516 -19 19 -37
20 -338 20 -264 0 -321 -3 -338 -15 -19 -14 -20 -27 -21 -512 -1 -273 -2 -499
-3 -502 -1 -3 -113 -5 -250 -5 l-250 0 1 500 c0 496 0 500 -21 516 -19 16 -54
18 -336 18 -285 0 -316 -2 -336 -18 l-22 -17 0 -497 c1 -273 -2 -498 -6 -498
-3 -1 -226 -2 -494 -3 l-489 -2 -25 49 c-89 177 -307 243 -476 144 -155 -92
-213 -273 -139 -440 29 -65 105 -138 175 -167 l57 -24 0 -218 0 -218 1598 0
1599 0 22 -49 c53 -113 177 -193 299 -194 204 -1 355 152 348 353 -4 130 -73
235 -194 296 -49 24 -69 28 -142 29 -71 0 -94 -4 -140 -26 -83 -39 -180 -142
-180 -191 0 -9 -8 -21 -17 -26 -10 -4 -691 -7 -1513 -7 l-1495 1 0 129 -1 130
47 25 c25 14 55 32 65 40 33 25 82 94 99 138 l17 42 857 0 c471 0 1605 1 2521
3 l1665 2 5 -138 c4 -108 8 -140 20 -147 18 -11 -25 -11 1006 -12 451 0 830 3
841 6 30 9 33 22 34 155 0 65 4 122 7 128 5 6 138 9 368 9 l362 -1 83 -81 c46
-45 103 -99 125 -120 23 -21 113 -107 200 -190 88 -83 179 -170 204 -193 25
-24 123 -118 219 -209 96 -92 185 -176 198 -188 l25 -21 -27 -77 -28 -76
-1451 0 -1451 0 -20 41 c-28 59 -112 131 -180 157 -76 27 -189 25 -256 -6
-246 -115 -274 -452 -50 -600 l48 -31 0 -214 -1 -214 -1369 1 c-1362 1 -1370
1 -1373 21 -2 11 -6 39 -9 62 -10 74 -54 211 -96 298 -155 325 -485 560 -845
603 -112 13 -313 3 -369 -18 -11 -4 -22 -8 -25 -8 -14 0 -113 -33 -161 -53
-219 -93 -410 -268 -527 -482 -39 -71 -89 -198 -98 -247 -3 -14 -7 -32 -9 -40
-5 -15 -15 -78 -20 -115 -1 -11 -3 -25 -4 -30 -1 -7 -58 -11 -156 -11 -134 0
-155 2 -156 15 0 9 -1 91 -1 184 l-1 167 -301 0 -301 0 -1 116 c0 108 -1 118
-22 135 -21 17 -58 18 -625 18 -613 0 -665 -3 -669 -37 0 -9 -2 -129 -3 -266
-1 -221 1 -251 16 -270 17 -21 17 -21 643 -21 706 0 655 -6 661 81 2 27 3 51
4 54 1 8 405 6 411 -1 4 -6 5 -644 1 -684 -1 -8 -377 -13 -423 -6 -5 0 -8 30
-8 66 0 69 -19 104 -58 106 -89 4 -1205 0 -1225 -4 -14 -4 -29 -16 -32 -28 -4
-11 -7 -131 -7 -265 0 -210 2 -247 16 -269 l16 -25 623 0 c739 0 667 -15 667
135 l0 95 309 0 308 0 1 233 c0 127 1 244 1 260 l1 28 157 -3 157 -3 18 -90
c32 -165 97 -314 192 -440 58 -77 192 -203 271 -255 131 -86 284 -147 410
-165 22 -3 51 -8 64 -11 13 -3 73 -5 132 -5 296 1 554 112 769 330 161 165
275 391 296 590 3 25 7 52 9 59 4 9 152 12 700 12 l695 0 0 -488 0 -488 1555
1 c1028 0 1556 -3 1558 -10 1 -5 2 -156 2 -335 l-1 -325 -1787 -1 -1787 -2 -4
22 c-3 11 -4 28 -4 36 4 84 -65 240 -140 318 -115 120 -213 162 -381 167 -101
3 -121 1 -185 -22 -71 -26 -152 -73 -192 -111 -105 -101 -171 -243 -173 -374
l-1 -36 -1076 0 c-982 1 -1076 2 -1080 17 -40 130 -135 224 -261 256 -59 15
-145 15 -189 -1 -156 -56 -248 -173 -257 -329 -8 -144 68 -270 205 -342 47
-25 63 -27 153 -28 95 0 103 2 161 33 74 40 123 89 159 160 l27 52 1097 0
1097 0 23 -47 c113 -234 400 -351 651 -267 118 40 240 144 299 253 l32 61 607
0 607 0 -2 -52 c-5 -123 9 -137 135 -137 71 0 100 12 104 42 3 24 6 73 7 110
l1 37 1077 -2 1077 -3 1 -353 c0 -225 -4 -356 -10 -361 -5 -4 -1982 -7 -4393
-6 l-4383 0 -40 89 c-166 367 -303 792 -383 1186 -43 210 -46 224 -51 265 -3
22 -7 49 -9 60 -2 11 -7 49 -12 85 -4 36 -8 67 -9 70 -1 3 -5 46 -9 95 -5 50
-10 98 -12 108 -16 91 -23 599 -10 817 7 121 9 148 20 255 3 28 8 75 11 105
10 91 55 369 74 450 5 25 13 61 16 80 27 158 172 650 240 815 7 17 36 89 65
160 113 281 333 698 515 975 94 143 361 502 394 530 4 3 19 21 35 40 127 156
426 457 616 620 768 658 1666 1096 2650 1294 69 13 145 27 170 31 25 3 52 8
60 10 19 5 68 12 145 21 33 3 69 8 80 10 10 2 49 6 85 10 36 3 81 7 100 9 19
2 94 7 165 11 72 4 131 7 132 8 6 4 435 -2 533 -8z m4810 -4833 c26 -116 110
-241 202 -299 100 -64 245 -79 342 -36 l45 20 5 -26 c22 -111 35 -495 27 -835
l-1 -57 -182 2 -182 3 -58 100 c-32 55 -65 115 -74 133 -9 17 -19 32 -23 32
-3 0 -22 -28 -42 -63 -20 -34 -56 -95 -79 -135 l-43 -73 -146 3 c-134 3 -146
5 -156 23 -32 62 -140 245 -145 245 -3 0 -39 -60 -81 -133 l-76 -132 -115 -3
-116 -3 -35 63 c-117 210 -123 219 -135 195 -6 -12 -25 -44 -42 -72 -16 -27
-47 -80 -67 -117 l-38 -68 -190 -2 -190 -3 0 -177 c0 -97 -3 -180 -7 -183 -4
-4 -2638 -9 -2909 -5 -13 0 -15 45 -15 393 l1 392 668 2 c368 0 670 3 673 6 2
2 4 135 4 295 l0 291 33 6 c114 25 200 106 251 236 l13 35 1436 0 1435 0 12
-53z m-5387 -3556 c9 -3 12 -92 12 -381 0 -350 1 -379 18 -397 17 -18 35 -19
365 -19 285 0 352 3 368 14 18 14 19 31 21 393 1 208 2 383 2 388 1 10 428 12
438 2 2 -3 5 -177 6 -387 2 -365 3 -382 21 -396 16 -11 83 -14 367 -14 303 0
350 2 363 16 20 19 18 -25 19 406 1 201 5 369 9 373 4 4 88 8 187 9 154 1 182
-1 185 -14 2 -8 4 -181 3 -383 0 -352 1 -369 19 -388 19 -18 36 -19 369 -19
345 -1 350 0 368 21 15 19 17 54 17 400 0 354 1 379 18 380 86 3 604 -1 610
-5 4 -2 7 -37 6 -78 -3 -113 -19 -103 182 -103 96 0 179 -2 183 -5 5 -3 38
-57 74 -120 101 -176 83 -173 165 -29 40 68 76 131 81 139 9 13 66 15 405 15
392 0 394 0 384 -20 -9 -17 -38 -67 -143 -243 -44 -74 -278 -406 -336 -477
-139 -168 -179 -216 -209 -250 -230 -258 -462 -479 -705 -675 -598 -481 -1243
-820 -1980 -1043 -193 -59 -266 -77 -505 -126 -155 -31 -170 -34 -325 -57
-139 -20 -151 -22 -230 -29 -38 -4 -81 -9 -95 -11 -144 -23 -733 -23 -990 1
-114 10 -213 21 -270 30 -19 3 -55 7 -80 10 -37 4 -285 49 -390 71 -14 3 -88
21 -165 40 -1017 254 -1940 773 -2674 1504 -128 128 -208 213 -291 309 -30 35
-60 69 -65 75 -51 56 -293 372 -320 418 -5 9 -35 54 -66 100 -91 136 -127 194
-231 378 l-99 175 38 5 c48 6 4849 4 4866 -3z"/>
</g>
</svg>
